HIERARCHY
ROOT Hips
{
	OFFSET -14.64140 90.27770 -84.91600
	CHANNELS 6 Xposition Yposition Zposition Zrotation Xrotation Yrotation
	JOINT Spine
	{
		OFFSET 0.00000 13.20850 -1.60436
		CHANNELS 3 Zrotation Xrotation Yrotation
		JOINT Spine1
		{
			OFFSET 0.00000 8.61716 0.00000
			CHANNELS 3 Zrotation Xrotation Yrotation
			JOINT Spine2
			{
				OFFSET 0.00000 8.61717 0.00000
				CHANNELS 3 Zrotation Xrotation Yrotation
				JOINT Spine3
				{
					OFFSET 0.00000 8.61717 0.00000
					CHANNELS 3 Zrotation Xrotation Yrotation
					JOINT Neck
					{
						OFFSET 0.00000 11.07920 1.10792
						CHANNELS 3 Zrotation Xrotation Yrotation
						JOINT Neck1
						{
							OFFSET 0.00000 7.08032 0.00000
							CHANNELS 3 Zrotation Xrotation Yrotation
							JOINT Head
							{
								OFFSET 0.00000 7.08031 0.00000
								CHANNELS 3 Zrotation Xrotation Yrotation
								End site
								{
									OFFSET 0.00000 0.00000 0.00000
								}
							}
						}
					}
					JOINT RightShoulder
					{
						OFFSET -0.01000 7.91373 5.19711
						CHANNELS 3 Zrotation Xrotation Yrotation
						JOINT RightArm
						{
							OFFSET -18.41580 0.00000 0.00000
							CHANNELS 3 Zrotation Xrotation Yrotation
							JOINT RightForeArm
							{
								OFFSET -29.11090 0.00000 0.00000
								CHANNELS 3 Zrotation Xrotation Yrotation
								JOINT RightHand
								{
									OFFSET -24.65040 0.00000 0.00000
									CHANNELS 3 Zrotation Xrotation Yrotation
									JOINT RightHandThumb1
									{
										OFFSET -5.35114 -0.85590 3.97906
										CHANNELS 3 Zrotation Xrotation Yrotation
										JOINT RightHandThumb2
										{
											OFFSET -4.52789 0.00000 0.00000
											CHANNELS 3 Zrotation Xrotation Yrotation
											JOINT RightHandThumb3
											{
												OFFSET -2.46976 0.00000 0.00000
												CHANNELS 3 Zrotation Xrotation Yrotation
												End site
												{
													OFFSET 0.00000 0.00000 0.00000
												}
											}
										}
									}
									JOINT RightHandIndex1
									{
										OFFSET -14.26970 0.00000 2.88139
										CHANNELS 3 Zrotation Xrotation Yrotation
										JOINT RightHandIndex2
										{
											OFFSET -5.48836 0.00000 0.00000
											CHANNELS 3 Zrotation Xrotation Yrotation
											JOINT RightHandIndex3
											{
												OFFSET -3.01859 0.00000 0.00000
												CHANNELS 3 Zrotation Xrotation Yrotation
												End site
												{
													OFFSET 0.00000 0.00000 0.00000
												}
											}
										}
									}
									JOINT RightHandMiddle1
									{
										OFFSET -14.26970 0.00000 -0.09147
										CHANNELS 3 Zrotation Xrotation Yrotation
										JOINT RightHandMiddle2
										{
											OFFSET -6.17441 0.00000 0.00000
											CHANNELS 3 Zrotation Xrotation Yrotation
											JOINT RightHandMiddle3
											{
												OFFSET -3.56743 0.00000 0.00000
												CHANNELS 3 Zrotation Xrotation Yrotation
												End site
												{
													OFFSET 0.00000 0.00000 0.00000
												}
											}
										}
									}
									JOINT RightHandRing1
									{
										OFFSET -12.69180 0.00000 -3.06433
										CHANNELS 3 Zrotation Xrotation Yrotation
										JOINT RightHandRing2
										{
											OFFSET -5.62556 0.00000 0.00000
											CHANNELS 3 Zrotation Xrotation Yrotation
											JOINT RightHandRing3
											{
												OFFSET -3.56744 0.00000 0.00000
												CHANNELS 3 Zrotation Xrotation Yrotation
												End site
												{
													OFFSET 0.00000 0.00000 0.00000
												}
											}
										}
									}
									JOINT RightHandPinky1
									{
										OFFSET -11.11390 0.00000 -6.03719
										CHANNELS 3 Zrotation Xrotation Yrotation
										JOINT RightHandPinky2
										{
											OFFSET -4.52789 0.00000 0.00000
											CHANNELS 3 Zrotation Xrotation Yrotation
											JOINT RightHandPinky3
											{
												OFFSET -2.46976 0.00000 0.00000
												CHANNELS 3 Zrotation Xrotation Yrotation
												End site
												{
													OFFSET 0.00000 0.00000 0.00000
												}
											}
										}
									}
								}
							}
						}
					}
					JOINT LeftShoulder
					{
						OFFSET 0.01000 7.91373 5.19711
						CHANNELS 3 Zrotation Xrotation Yrotation
						JOINT LeftArm
						{
							OFFSET 18.41580 0.00000 0.00000
							CHANNELS 3 Zrotation Xrotation Yrotation
							JOINT LeftForeArm
							{
								OFFSET 29.11090 0.00000 0.00000
								CHANNELS 3 Zrotation Xrotation Yrotation
								JOINT LeftHand
								{
									OFFSET 24.65040 0.00000 0.00000
									CHANNELS 3 Zrotation Xrotation Yrotation
									JOINT LeftHandThumb1
									{
										OFFSET 5.35114 -0.85590 3.97906
										CHANNELS 3 Zrotation Xrotation Yrotation
										JOINT LeftHandThumb2
										{
											OFFSET 4.52789 0.00000 0.00000
											CHANNELS 3 Zrotation Xrotation Yrotation
											JOINT LeftHandThumb3
											{
												OFFSET 2.46977 0.00000 0.00000
												CHANNELS 3 Zrotation Xrotation Yrotation
												End site
												{
													OFFSET 0.00000 0.00000 0.00000
												}
											}
										}
									}
									JOINT LeftHandIndex1
									{
										OFFSET 14.26970 0.00000 2.88139
										CHANNELS 3 Zrotation Xrotation Yrotation
										JOINT LeftHandIndex2
										{
											OFFSET 5.48836 0.00000 0.00000
											CHANNELS 3 Zrotation Xrotation Yrotation
											JOINT LeftHandIndex3
											{
												OFFSET 3.01859 0.00000 0.00000
												CHANNELS 3 Zrotation Xrotation Yrotation
												End site
												{
													OFFSET 0.00000 0.00000 0.00000
												}
											}
										}
									}
									JOINT LeftHandMiddle1
									{
										OFFSET 14.26970 0.00000 -0.09147
										CHANNELS 3 Zrotation Xrotation Yrotation
										JOINT LeftHandMiddle2
										{
											OFFSET 6.17440 0.00000 0.00000
											CHANNELS 3 Zrotation Xrotation Yrotation
											JOINT LeftHandMiddle3
											{
												OFFSET 3.56744 0.00000 0.00000
												CHANNELS 3 Zrotation Xrotation Yrotation
												End site
												{
													OFFSET 0.00000 0.00000 0.00000
												}
											}
										}
									}
									JOINT LeftHandRing1
									{
										OFFSET 12.69180 0.00000 -3.06433
										CHANNELS 3 Zrotation Xrotation Yrotation
										JOINT LeftHandRing2
										{
											OFFSET 5.62556 0.00000 0.00000
											CHANNELS 3 Zrotation Xrotation Yrotation
											JOINT LeftHandRing3
											{
												OFFSET 3.56744 0.00000 0.00000
												CHANNELS 3 Zrotation Xrotation Yrotation
												End site
												{
													OFFSET 0.00000 0.00000 0.00000
												}
											}
										}
									}
									JOINT LeftHandPinky1
									{
										OFFSET 11.11390 0.00000 -6.03719
										CHANNELS 3 Zrotation Xrotation Yrotation
										JOINT LeftHandPinky2
										{
											OFFSET 4.52789 0.00000 0.00000
											CHANNELS 3 Zrotation Xrotation Yrotation
											JOINT LeftHandPinky3
											{
												OFFSET 2.46976 0.00000 0.00000
												CHANNELS 3 Zrotation Xrotation Yrotation
												End site
												{
													OFFSET 0.00000 0.00000 0.00000
												}
											}
										}
									}
								}
							}
						}
					}
					JOINT pCube4
					{
						OFFSET 0.00000 10.91090 1.10792
						CHANNELS 3 Zrotation Xrotation Yrotation
						End site
						{
							OFFSET 0.00000 0.00000 0.00000
						}
					}
				}
			}
		}
	}
	JOINT RightUpLeg
	{
		OFFSET -9.98441 0.00000 0.00000
		CHANNELS 3 Zrotation Xrotation Yrotation
		JOINT RightLeg
		{
			OFFSET 0.00000 -42.11790 0.00000
			CHANNELS 3 Zrotation Xrotation Yrotation
			JOINT RightFoot
			{
				OFFSET 0.00000 -45.00020 -0.00001
				CHANNELS 3 Zrotation Xrotation Yrotation
				JOINT RightForeFoot
				{
					OFFSET 0.00000 -3.74820 0.00000
					CHANNELS 3 Zrotation Xrotation Yrotation
					JOINT RightToeBase
					{
						OFFSET 0.00000 0.06325 14.43120
						CHANNELS 3 Zrotation Xrotation Yrotation
						End site
						{
							OFFSET 0.00000 0.00000 0.00000
						}
					}
				}
			}
		}
	}
	JOINT LeftUpLeg
	{
		OFFSET 9.98441 0.00000 0.00000
		CHANNELS 3 Zrotation Xrotation Yrotation
		JOINT LeftLeg
		{
			OFFSET 0.00000 -42.11800 0.00000
			CHANNELS 3 Zrotation Xrotation Yrotation
			JOINT LeftFoot
			{
				OFFSET 0.00000 -45.00070 0.00000
				CHANNELS 3 Zrotation Xrotation Yrotation
				JOINT LeftForeFoot
				{
					OFFSET 0.00000 -3.74824 0.00000
					CHANNELS 3 Zrotation Xrotation Yrotation
					JOINT LeftToeBase
					{
						OFFSET 0.00000 0.06325 14.43110
						CHANNELS 3 Zrotation Xrotation Yrotation
						End site
						{
							OFFSET 0.00000 0.00000 0.00000
						}
					}
				}
			}
		}
	}
}
MOTION
Frames: 4
Frame Time: 0.050000
0.044970452971544006 -0.0482118293512282 0.013053346005317767 -0.0225364594086714 -0.0046052906443563805 -0.004886185809005157 2.0376834652000295 1.2548536863917057 -1.7855335563136858 -0.935691715883984 3.583962729129724 0.36594447538375285 -1.1553195003721293 -1.521176773157883 0.2520330690511124 0.444124695969725 -0.10741767210412174 -0.47981928540225005 1.8921556794225114 13.635027397649724 -5.1844118203210705 0.4303383652980084 0.4813462206631068 -12.472969449769485 2.112754886729923 -14.920633205509064 -1.070703190310942 -11.877600419574588 3.7861174213973436 -17.246230567685746 72.32853258143278 -15.041170160197701 22.851274205417933 15.064193747617887 2.1738903334218325 94.21393330926922 2.3569561491677864 -0.10060397377698949 -0.2802133073314011 4.518720671870305 -0.12336830498425042 -1.5690136967127417 -0.0006741212415681411 -0.03213739593118859 -56.24693809905536 -0.038389338665484704 -0.016056521695089917 -56.271083012888546 -38.81246195054635 0.019847329381613425 -0.005205593025541599 -0.021329514468970707 -0.00026640652252909016 -0.016401065115459263 -0.046490967366105286 -0.0030128817093364366 -0.017561194621733518 -36.648588139210744 -0.030955565346811393 -0.018131647804204395 0.004907966488153287 0.024755894314789955 -0.008129737137351312 0.01604064439076087 -0.03083834296148526 -0.004135116921307899 -19.80691052603128 -0.04185061031779737 0.011837741305009449 -0.03389007622074228 -0.032095544560543976 0.01147523839134444 0.006919088199435225 0.0045339720201036295 0.02306928846397265 24.02570022912913 -0.030582554808129263 -0.03834917622287131 28.869609613004194 0.026655847639237985 -0.006690739687210649 28.911525426617963 -0.035350797694829024 0.040669617643220524 7.69434575086049 1.9336831426891352 13.31728692488077 -71.30122134997403 21.97559992952743 -11.465284058656414 -16.508152097075946 3.076125705062706 -66.02776167622946 -11.93797235554709 -1.8266959193933514 0.6284812104761421 -0.5037165252666711 0.02147359355944324 -8.145359408748664 0.007022324978103059 -0.01396057461717178 44.584916397108074 -0.021391102352334115 0.027378212514260158 44.5534526538875 12.460996308082585 -0.04477885372653394 0.028500769707834047 0.021786433085375 -0.019885123449092705 -0.049238232239240246 -0.04207432495677582 0.01769790922447606 0.008468454316981759 11.088107210204507 -0.002989205854128644 -0.046413761471187455 -0.030075491473341306 -0.008590956015541636 0.012994489554647685 -0.025167458610131282 0.03926321725586441 -0.004518417001479148 4.80808593160148 0.024084966651916333 -0.0009453368287891143 0.030832385936795787 0.03031861197293441 0.04773052047432891 0.003796462427834414 -0.008009065611581156 0.006783640770481115 -5.615226577857921 -0.044453622471107845 0.014736612389131253 -6.7152798139541945 -0.01221636347381889 -0.0011416790492316253 -6.71365965285466 -0.03904486640792681 -0.015310520578687347 -0.031569369411641506 -0.02549022093794274 -0.015337092303318327 8.033738640481785 3.4441545232630992 -19.208502186600732 -0.035987085622022505 10.44446337147639 0.016145570594834503 -5.618839289230245 -15.63003749809317 3.148459016585388 -0.02590205056051932 0.018829018245437205 0.03138079850002856 -0.03507486593117153 4.716071476815272 -0.009558885218809791 12.485643998424207 -8.216364000273206 6.920302543596256 -0.04334047978358581 46.36421452000871 -0.010593121610534507 -4.334793696934156 -14.784496493780612 -3.850695379133741 0.04851158763491211 0.048740187229364726 -0.02425297074919799 0.028113377136080638 -10.734166512441838 -0.03979383928593484 
-0.013999757989114504 -0.049072922052322575 -0.0374798728590063 -0.013315715714442223 -0.032762890400270625 0.007917840405646642 2.3380755733786103 1.173742324915459 -1.8377758691475992 -0.8753977254036426 3.5565569856299155 0.45349979994714856 -1.2107614924432109 -1.5204041906184762 0.49963729573461746 0.4189534537493461 -0.1807426754580045 -0.5037523125902788 1.8756024120609758 13.792696159623148 -5.261365113374771 0.33412804795332063 0.5509120152831966 -12.851592756432257 2.054099512378425 -14.908051419450171 -1.0367548998077034 -12.226588147105407 3.867236024598843 -17.48959010395141 71.76968858016252 -14.788173856969609 23.740778848553493 12.589820933911113 1.797473543258542 92.97697128359054 2.445839508326836 -0.03843567043982009 -0.2096731055179065 4.508530497928121 -0.15301779422616732 -1.5641826454615249 -0.03762497588211721 -0.005278009216893864 -56.23530735119948 -0.03352140883823173 0.03904112930556286 -56.26540154929958 -38.81691591464982 0.039855094644650355 0.044249857402837385 0.047558959414560086 -0.01242721059663771 -0.013161566892475106 0.02953692635792781 0.029294935677256145 0.010818938730610354 -36.65645649247775 -0.012699490289198931 -0.014167922425259475 0.028146700683075097 -0.036923877191016904 -0.03519604303755663 0.01938903752844766 0.023110393568429578 0.006224901012765599 -19.765733949967014 -0.014130558615655646 0.012227628933393266 0.018639348110233475 0.014742594644334745 -0.004973013536667607 0.007680000609546618 0.009271926217729537 -0.008678652598420362 24.103210976744894 0.03130800917045299 -0.004937246885884721 28.827086389284315 0.010022188359987071 0.032263507524172175 28.883240645930165 -0.014485326700732175 -0.025147001681550644 7.587483893217941 1.8828649368568948 13.510831848557492 -71.29712192212838 21.903787952459773 -10.510847582525756 -9.259194611147603 0.02813869331180307 -59.565387401208945 -12.419313124716588 -1.408819627391976 0.6831848132894508 -0.5044347364817731 0.07786295650707364 -8.126965101949661 0.03888319173071149 -0.04578955839719109 44.600251014768325 -0.036267967059844475 -0.03860982779720028 44.58685976182997 12.416321353005678 0.0005545587374329147 0.025666537993314375 0.015349822949877 0.01856289365807726 0.007438598096684564 -0.021517430522797077 0.0026219544206940826 0.030300065903239002 11.092499701816546 0.008499706184098385 0.019743121195209806 0.029476134027107775 -0.018212692099872245 -0.0343096820019146 0.04239452689924553 -0.017315327320074014 -0.026718265783862685 4.788260540361475 -0.021001233934145387 -0.03626741004674924 -0.013816809038057343 -0.0034426091665313878 -0.005062918232520561 0.01554873518244692 0.044640396002260475 0.04061280928741845 -5.625211410965878 0.03456450783535028 -0.024386774517222404 -6.739810406702342 0.010766944240440723 0.0370380380573532 -6.767732305620371 0.022406336063058866 -0.037646571587931256 0.0031086541608623 0.01972971546761342 0.04647129718814508 8.02190806016879 3.5195844853368707 -19.21410024350117 -0.02372781684975133 10.388021187868981 0.060454615385456115 -5.615992832480466 -15.650492176524367 3.184125963459822 -0.03894788393108802 -0.0011824013463341556 0.04494084510859728 -0.04963863806114115 4.705419793427635 -0.020538257047737242 12.470695860123985 -8.226117352858838 6.883891788165765 0.045651895619305036 46.3384595028076 -0.03259763325188988 -4.3226350598444645 -14.74271573851907 -3.85344747437468 0.044193186288535316 0.0010983099966076404 -0.033875067131739746 0.030061587387547415 -10.793521018166965 0.02030391565923073 
0.003033531860262643 0.013364006233047333 0.00582991523301816 -0.022268676007231928 0.03190189526190419 0.0030076430337862402 2.758163072815961 1.2175666472825835 -1.90238513431446 -0.9110986169887987 3.56497103596428 0.3761614556838503 -1.1921690572920123 -1.468334385396901 0.7801149722391515 0.41323347779877695 -0.20414062190507537 -0.3951546970172822 1.9353134510798824 13.812053421297632 -5.489614968691842 0.36564561112309024 0.5902525479482216 -13.329663520733117 2.1460695417403834 -14.955722174457113 -1.0973261777905847 -12.649388627743233 3.953809842287993 -17.667720622526467 71.48446398739597 -14.898712423783602 24.36467056435063 10.117809849930467 1.4853751209058925 91.79840790621803 2.1529474496946612 -0.10613772712666748 -0.14731784307535944 4.489888988100809 -0.13449598885108266 -1.6386537028786854 0.029720381960892394 -0.004999188674649954 -56.26024102209406 -0.003218005351209988 -0.008842941627899796 -56.272674445926604 -38.75317760696567 0.039792415619685585 0.006029817610173797 0.02219072859287871 -0.038800556493962204 0.03517906103862952 -0.016486629478256756 -0.03686939508137441 -0.022852677639933164 -36.68717366921242 0.02218453065454703 -0.04801904050247078 0.013138385613163205 0.03058092279282987 0.02417652529287865 -0.04641599100363854 0.024768489078543867 -0.000270425506268705 -19.738317640435746 0.02903122427161401 -0.010848410675449198 -0.03338078721145151 -0.010604543223948227 -0.00669164806332733 0.03568397030987889 0.021745442606452434 0.0424893067271014 24.026264620472322 -0.0102345976468521 -0.0239758164295421 28.883428384162876 0.015835108654513094 0.0015736663927568618 28.901709264056837 -0.031243787559137266 -0.029663101999811946 7.565573101967944 1.8264397182336103 13.80835055669491 -71.66373980736648 21.554318721873962 -9.506562562641598 -3.344400281258995 -2.822473327125693 -53.746249776172355 -12.923692191047776 -1.0165232464560563 0.8135694644180003 -0.444617925658722 0.04617503761135852 -8.120272510405812 -0.022139336375498756 0.007544808003876554 44.56408323132934 0.004056541869111562 -0.026273452691477024 44.547919076612864 12.487539343413527 0.01839054889150297 0.0210322176752268 -0.006276032446270332 -0.02538556498026145 -0.007012626010458126 -0.04398529249365467 0.04796237014079132 -0.04600607235395231 11.099470444187508 0.03444448412340912 -0.039000391361912946 0.00776496100086169 -0.0056435923353127 0.028259975022648653 -0.02561231843801013 -0.041748847377610775 -0.009200655739577108 4.802374883350563 -0.049892867601453304 -0.00240134209337406 0.03202208103115596 0.008201233404537954 -0.01273658343282834 -0.032331571842259016 -0.049704885778762434 -0.028580216268917796 -5.64372405980797 -0.005254439015692802 -0.013031742137804425 -6.740645015483258 -0.002234548929536612 0.04881537180369133 -6.681506755035293 0.023032871383320212 -0.044615479045962116 0.01477550242459354 0.037785402327678304 0.009187112923214212 8.018690460773103 3.515275658569373 -19.18791319966805 0.004916706145051274 10.370177993327085 0.03264157629976577 -5.628031861091261 -15.62045134077952 3.2018675730270845 -0.0010674787587442933 0.02197732142403414 0.0075844187901145145 -0.0004301618408787389 4.652416215536377 0.01751407745432162 12.421125359851546 -8.26020310327247 6.882967370359705 0.022185441784746174 46.37857772553777 0.03719409064255322 -4.29001473354998 -14.75949012843134 -3.7893596645572125 -0.006972694468841341 0.011460654036551488 0.025584505885479336 0.01909465022832441 -10.776878762375318 -0.04957860857220773 
0.04857622848701416 0.02072251170260343 0.019926370182412955 0.013853504432686702 0.01222309030891773 0.0322711167970735 3.307742761465575 1.3553325209549076 -2.0270637265373614 -0.8504594852643482 3.5550559015421634 0.44470361464625474 -1.1514966462164764 -1.429593730673385 1.0640759539878932 0.3937383793857846 -0.2838492107299859 -0.3162953604478878 2.0423983470036218 13.760807233361374 -5.643023068656457 0.3371409333393077 0.4489014280217731 -13.720210223144052 2.177088520353958 -15.198309033483554 -1.1621824888102736 -13.108824182561055 4.0363791491332535 -17.954413326158857 71.69539024061052 -16.03315000931934 25.04151117118536 8.9117448148105 1.190530181499734 90.87572362202066 1.8650387490844353 -0.03323263959361426 -0.09603366562735181 4.5470879995107385 -0.09946004248641635 -1.6091725959556515 -0.02289556246567726 0.043970242126321286 -56.226528216954236 0.02222313309811107 0.02619885607988546 -56.25194925803978 -38.77829245822066 0.016216659979201173 0.002834332215163707 0.03375777450871879 -0.047366700907405496 0.0028884653170457948 0.00617867594880779 -0.016532722983839024 0.034315582889471195 -36.7103214386402 -0.01196626839498558 0.011401501825993459 0.026344910250888014 0.03315538928860052 -0.042202000365332115 -0.027133566872772078 -0.005431430673763247 -0.010788777794912817 -19.769503533692216 0.03940187848754726 0.0039101524669973185 -0.01435281402136957 -0.028369459026015044 -0.011529358015115317 -0.025615922024802427 -0.017470991714767795 -0.034520519559157595 24.04254266719528 0.04019679612904462 0.023685185021105393 28.841116238775015 0.029196996483234216 0.007657071547653635 28.85061358433044 0.014830137915755392 -0.03434000697550136 7.65641033653709 1.8919881047738796 13.988623012673061 -72.08754131991404 20.733919970049644 -8.995020669753417 -0.8976898117743131 -3.6610328682315822 -49.983561418471936 -13.57328006667822 -0.8141639432544224 0.7709194724307353 -0.4607430533837883 0.029627765540188124 -8.077781683054983 -0.03595156943069906 -0.047874517040783555 44.530527518617546 0.03387139314797631 0.01707069445196909 44.57674067444315 12.498110329499365 0.043465919754536446 0.010855864131456054 0.035738264453278 -0.008435145044575916 -0.026401154080781485 0.049430151708521046 0.02473503788793321 0.03390658836936661 11.113046077791475 0.002643651235582031 0.026318091636145496 -0.019501739614915477 0.047802504597377796 -0.022541169409817034 -0.04351321451251588 -0.0123386568818266 -0.01423644620767848 4.731796968226364 -0.04192390041477944 0.0005026982055696873 -0.031230440832010705 0.04376374177495882 0.02004974231647648 0.0014371433344420547 -0.012032124841659327 0.026280525206257586 -5.618756848192563 -0.00345028385573287 -0.02316033160958881 -6.738328735280219 -0.017764336645897227 0.009731176629581824 -6.681711796947591 0.015102626562709113 -0.028272705992108352 0.015358892978169834 0.03529237350131014 -0.023535813051904806 8.085424978379589 3.5216693473862026 -19.236954202174964 0.011286000268237971 10.399444673597861 0.00728404785259551 -5.593859118397301 -15.61795403072293 3.2342000074549677 0.03466181391827522 -0.02326402387797747 0.012360631079338276 -0.01165466881630249 4.725515760951694 0.03762589754411503 12.48264480523844 -8.253448444509418 6.895057711266682 0.004048562614382185 46.38115148303233 0.03412748447880121 -4.337445532354115 -14.741078287410106 -3.82649238843178 0.04802947750435829 0.017561891882728952 -0.04344748622678097 0.04509199437014398 -10.79231772301251 0.04933238844268428 
